<svg width="40px" height="40px" viewBox="0 0 60 60" version="1.1" xmlns="http://www.w3.org/2000/svg" xmlns:xlink="http://www.w3.org/1999/xlink" xmlns:sketch="http://www.bohemiancoding.com/sketch/ns">
    <path d="M0.224580688,30 C0.224580688,13.4314567 13.454941,0 29.7754193,0 C46.0958976,0 59.3262579,13.4314567 59.3262579,30 C59.3262579,46.5685433 46.0958976,60 29.7754193,60 C13.454941,60 0.224580688,46.5685433 0.224580688,30 Z M0.224580688,30" fill="#FFFFFF" sketch:type="MSShapeGroup"></path>
    <path d="M35.0384324,31.6384006 L47.2131148,40.5764264 L47.2131148,20 L35.0384324,31.6384006 Z M13.7704918,20 L13.7704918,40.5764264 L25.9449129,31.6371491 L13.7704918,20 Z M30.4918033,35.9844891 L27.5851037,33.2065217 L13.7704918,42 L47.2131148,42 L33.3981762,33.2065217 L30.4918033,35.9844891 Z M46.2098361,20 L14.7737705,20 L30.4918033,32.4549304 L46.2098361,20 Z M46.2098361,20" id="Shape" fill="#333333" sketch:type="MSShapeGroup"></path>
    <path d="M59.3262579,30 C59.3262579,46.5685433 46.0958976,60 29.7754193,60 C23.7225405,60 18.0947051,58.1525134 13.4093244,54.9827754 L47.2695458,5.81941103 C54.5814438,11.2806503 59.3262579,20.0777973 59.3262579,30 Z M59.3262579,30" id="reflec" fill-opacity="0.08" fill="#000000" sketch:type="MSShapeGroup"></path>
    <path d="M73.255,0H17.858C8.035,0,0,8.035,0,17.85v55.412c0,9.814,8.035,17.85,17.858,17.85h55.396
    c9.821,0,17.856-8.035,17.856-17.85V17.85C91.111,8.035,83.076,0,73.255,0z M69.888,52.927c4.989,4.627,6.026,6.879,6.194,7.159
    c2.066,3.433-2.286,3.703-2.286,3.703l-8.33,0.109c0,0-1.793,0.359-4.147-1.26c-3.114-2.128-6.051-7.686-8.34-6.967
    c-2.32,0.739-2.248,5.742-2.248,5.742s0.014,0.712-0.514,1.287c-0.571,0.602-1.695,0.376-1.695,0.376H44.8
    c0,0-8.226,0.845-15.468-6.693c-7.898-8.224-14.873-24.37-14.873-24.37s-0.399-0.98,0.036-1.499
    c0.493-0.582,1.829-0.575,1.829-0.575l8.908-0.034c0,0,0.837,0.15,1.439,0.592c0.498,0.364,0.775,1.051,0.775,1.051
    s1.441,3.645,3.347,6.938c3.721,6.43,5.457,7.839,6.717,7.15c1.843-1.008,1.289-9.091,1.289-9.091s0.036-2.938-0.927-4.245
    c-0.743-1.011-2.146-1.311-2.765-1.391c-0.505-0.067,0.318-1.23,1.388-1.752c1.605-0.783,4.437-0.826,7.782-0.795
    c2.604,0.026,3.357,0.19,4.374,0.435c3.073,0.741,2.029,3.607,2.029,10.475c0,2.201-0.394,5.294,1.191,6.321
    c0.685,0.441,2.357,0.068,6.525-7.022c1.979-3.361,3.457-7.31,3.457-7.31s0.332-0.705,0.828-1.006
    c0.517-0.308,1.211-0.212,1.211-0.212l9.384-0.06c0,0,2.816-0.337,3.271,0.936c0.486,1.335-1.054,4.449-4.883,9.555
    C65.363,48.861,64.669,48.081,69.888,52.927z"/>

</svg>